<?xml version="1.0" encoding="utf-8"?>
<!-- Generator: Adobe Illustrator 26.4.1, SVG Export Plug-In . SVG Version: 6.00 Build 0)  -->
<svg version="1.1" id="Capa_1" xmlns="http://www.w3.org/2000/svg" xmlns:xlink="http://www.w3.org/1999/xlink" x="0px" y="0px"
	 viewBox="0 0 841.89 360.01" style="enable-background:new 0 0 841.89 360.01;" xml:space="preserve">
<style type="text/css">
	.st0{clip-path:url(#SVGID_00000039101925594441844660000012237098411533148595_);}
	.st1{clip-path:url(#SVGID_00000039101925594441844660000012237098411533148595_);fill:#00B6E1;}
</style>
<g>
	<defs>
		<rect id="SVGID_1_" width="841.89" height="360.01"/>
	</defs>
	<clipPath id="SVGID_00000027567473336073229780000003153768291922586498_">
		<use xlink:href="#SVGID_1_"  style="overflow:visible;"/>
	</clipPath>
	<path style="clip-path:url(#SVGID_00000027567473336073229780000003153768291922586498_);" d="M383.96,114.08
		c-3.02-0.68-9.54-0.68-10.71-4.37c0,0,2.34-1.05,6.96-0.49c0,0,2.03-0.06,2.03-1.11c0-1.05-0.68-1.48-6.28-2.46
		c-5.6-0.98-12.81-3.63-19.77-3.63c0,0-4.19-1.23-6.47-4.8c-2.28-3.57-3.39-3.82-6.28-3.82c0,0-1.85,1.46-5.62-2.16
		c-3.78-3.61-12.48-10.67-18.39-16.75c-5.91-6.08-21.02-16.42-23.98-16.42c-2.96,0-29.23-5.09-47.95-11.17
		c0,0-13.47-5.75-20.04-1.15c-6.57,4.6-12.48,4.93-18.56,4.43c0,0-7.39,0.99-9.03-3.29c-1.64-4.27-7.39-31.2-23.81-31.7
		c-16.42-0.49-23.98,15.77-23.98,15.77s-4.6,6.4-2.13,9.85c0,0,1.64,1.31,1.48,3.45c-0.16,2.13-1.15,5.58,3.45,7.55
		c0,0,1.15,0.49,0.99,2.14c-0.16,1.64-0.99,7.23-0.99,7.23s0.33,4.93,2.96,2.96l2.63-1.97c0,0,1.44,1.35,1.31,2.83
		c-0.12,1.48,0.99,2.46,2.46,2.34c0,0-0.49,1.97,0.37,2.59c0.86,0.61,2.59,0.61,2.59,0.61s-1.11,4.07,0.37,4.56
		c1.48,0.49,7.27-0.25,11.46-4.68c0,0,4.19-0.98,4.19,1.6c0,2.59-4.19,6.53-4.19,6.53s-11.82,10.96-12.69,20.2
		c-0.86,9.24-8.99,24.26-13.43,28.94l-2.96,3.08c0,0-9.98,5.91-15.64,16.87c-5.67,10.96-25.25,21.06-25.25,21.06
		s-10.84-1.23-14.53,2.34c0,0-3.2,4.06-5.91,3.94l-2.71-0.12c0,0-6.77-8.38-13.43-22.79c-6.65-14.41-19.46-25.25-29.19-24.76
		c-9.73,0.49-20.57,7.39-25.25,19.46c-4.68,12.07-5.3,24.88,0,28.94c5.3,4.06,11.46,9.11,24.39,8.74
		c12.93-0.37,29.81-5.71,29.81-5.71s5.42-2.01,12.69,0.49c0,0-0.49,2.75,1.11,2.88c1.6,0.12,3.57,0.37,3.57,0.37l-0.74,3.08
		c0,0-1.72,3.69,4.06,3.45l3.08,0.12c0,0-1.23,3.33,6.65,3.33s6.65-0.99,10.22-4.43c3.57-3.45,9.48-11.08,22.91-17.37
		c13.43-6.28,26.85-19.58,29.31-24.14c2.46-4.56,18.35-18.23,20.57-31.04c0,0,18.35,22.54,24.76,26.97c0,0,4.68,12.44,7.64,15.27
		c0,0,6.04,10.71-1.48,14.04c-7.51,3.32-19.46,10.84-19.46,10.84s-26.73,14.41-27.96,25.62c-1.23,11.21,1.6,25.86,1.6,25.86
		l0.53,52.55c0,0-2.14,1.15-2.14,3.61v6.08c0,0-2.79,1.15-2.79,5.09c0,0-0.66,2.79-3.78,3.78c-3.12,0.99-3.9,7.47-3.9,7.47
		s-5.67,4.8-8.38,6.03c-2.71,1.23-9.48,7.27-9.48,7.27s-5.91,4.68-10.59,4.68c0,0-2.46,0-2.46,6.16c0,6.16,7.88,8.01,12.81,8.01
		c4.93,0,16.13-1.72,16.13-1.72s6.04-1.48,21.43-9.85c0,0,4.31-0.74,8.25-0.74c3.94,0,7.14-4.31,7.14-4.31s0.49-3.45-0.86-7.39
		c0,0-0.49-5.3-2.46-8.13c-1.97-2.83-2.96-6.04-2.59-9.36c0.37-3.33,7.51-31.53,8.87-40.64c0,0,5.67-10.35,5.05-17.37
		c-0.62-7.02-3.32-17.12-3.32-17.12s-0.89-4.06,3.37-6.04c4.26-1.97,5.13-0.99,5.13,3.08c0,4.07-1.23,13.79-0.74,23.89
		c0.49,10.1,17.12,8.38,17.12,8.38s2.96-0.37,6.9-1.85c0,0,18.97-1.23,22.23-2.96c3.26-1.72,3.82-2.89,3.82-2.89l11.52-0.18
		c0,0,3.2,4.99,6.04,6.16v5.24c0,0-1.23,6.22,4.8,6.22c6.04,0,7.14-1.35,7.14-1.35s4.93-2.77,4.43-9.73c0,0,7.94-4.13,7.94-11.7
		c0-7.58-5.17-10.22-5.17-10.22s-4.13,0.04-5.85,1.85c0,0-3.53-0.49-4.84,3.12l-1.72,2.22c0,0-5.42-4.19-10.18-4.19
		c-4.76,0-12.81-3.2-12.81-3.2s-5.34-1.56-11.74-1.31c0,0-2.79,0.33,1.48-7.31c4.27-7.64,6.73-12.48,6.73-12.48
		s2.79-4.68,13.3-10.92c10.51-6.24,18.39-10.67,18.39-27.51s-13.79-44.75-13.79-44.75s-0.9-13.06-10.43-36.05
		c0,0-3.78-10.02-2.96-15.6c0,0,16.26-0.66,30.38-1.97c0,0,14.78,11.17,30.87,20.69s20.36,15.6,20.36,15.6s0.33,4.27,5.75,10.18
		c5.42,5.91,4.43,10.35,4.43,10.35s0.08,3.86,2.79,2.75c2.71-1.11,1.6-6.77,1.23-9.12c-0.37-2.34-0.25-4.8,1.11-5.3
		c1.35-0.49,19.09,12.32,19.09,12.32s2.09,1.35,2.96,0.06c0.86-1.29,0-1.97-1.35-3.02c-1.36-1.05-11.27-9.79-11.27-9.79
		s-0.8-0.8-0.06-2.34c0.74-1.54,2.46-1.48,5.48,0.92c3.02,2.4,13.24,8.44,13.24,8.44s1.91,0.86,2.59-0.12
		c0.68-0.99,0.37-2.03-0.8-2.83c-1.17-0.8-11.08-7.82-11.08-7.82l10.9,0.62c0,0,2.03,0.37,2.28-0.49
		C387.47,116.35,386.98,114.75,383.96,114.08 M58.77,152.14c0.38-0.76,1.3-1.06,2.06-0.68s1.06,1.3,0.68,2.06
		c-0.38,0.76-1.3,1.06-2.06,0.68C58.7,153.82,58.39,152.9,58.77,152.14 M58.59,155.71c0.76,0.38,1.06,1.3,0.68,2.06
		c-0.38,0.76-1.3,1.06-2.06,0.68s-1.06-1.3-0.68-2.06C56.91,155.64,57.84,155.33,58.59,155.71 M32.59,155.65
		c0.38-0.76,1.3-1.06,2.06-0.68c0.76,0.38,1.06,1.3,0.68,2.06c-0.38,0.76-1.3,1.06-2.06,0.68S32.21,156.41,32.59,155.65 M33,161.68
		c-0.38,0.76-1.3,1.06-2.06,0.68s-1.06-1.3-0.68-2.06c0.38-0.76,1.3-1.06,2.06-0.68S33.38,160.93,33,161.68 M35.08,151.41
		c0.38-0.76,1.3-1.06,2.06-0.68c0.76,0.38,1.06,1.3,0.69,2.06c-0.38,0.76-1.3,1.06-2.06,0.68S34.71,152.16,35.08,151.41
		 M35.14,162.9c0.38-0.76,1.3-1.06,2.06-0.68s1.06,1.3,0.68,2.06c-0.38,0.76-1.3,1.06-2.06,0.68
		C35.07,164.57,34.76,163.65,35.14,162.9 M37.47,158.24c0.38-0.76,1.3-1.06,2.06-0.68c0.76,0.38,1.06,1.3,0.69,2.06
		c-0.38,0.76-1.3,1.06-2.06,0.68C37.39,159.92,37.09,159,37.47,158.24 M39.96,153.99c0.38-0.76,1.3-1.06,2.06-0.68
		s1.06,1.3,0.68,2.06c-0.38,0.76-1.3,1.06-2.06,0.68S39.59,154.75,39.96,153.99 M42.2,149.74c0.38-0.76,1.3-1.06,2.06-0.68
		s1.06,1.3,0.68,2.06c-0.38,0.76-1.3,1.06-2.06,0.68C42.13,151.42,41.82,150.5,42.2,149.74 M42.35,160.83
		c0.38-0.76,1.3-1.06,2.06-0.68s1.06,1.3,0.68,2.06c-0.38,0.76-1.3,1.06-2.06,0.68C42.27,162.51,41.97,161.58,42.35,160.83
		 M44.84,156.58c0.38-0.76,1.3-1.06,2.06-0.68s1.06,1.3,0.68,2.06c-0.38,0.76-1.3,1.06-2.06,0.68S44.47,157.34,44.84,156.58
		 M47.08,152.33c0.38-0.76,1.3-1.06,2.06-0.68c0.76,0.38,1.06,1.3,0.68,2.06c-0.38,0.76-1.3,1.06-2.06,0.68
		S46.7,153.09,47.08,152.33 M47.4,161.84c0.38-0.76,1.3-1.06,2.06-0.68s1.06,1.3,0.68,2.06c-0.38,0.76-1.3,1.06-2.06,0.68
		C47.32,163.52,47.02,162.6,47.4,161.84 M49.72,157.19c0.38-0.76,1.3-1.06,2.06-0.68s1.06,1.3,0.68,2.06
		c-0.38,0.76-1.3,1.06-2.06,0.68C49.65,158.87,49.35,157.94,49.72,157.19 M52.22,152.94c0.38-0.76,1.3-1.06,2.06-0.68
		s1.06,1.3,0.68,2.06c-0.38,0.76-1.3,1.06-2.06,0.68S51.84,153.7,52.22,152.94 M54.04,160.64c0.38-0.76,1.3-1.06,2.06-0.68
		c0.76,0.38,1.06,1.3,0.69,2.06c-0.38,0.76-1.3,1.06-2.06,0.68S53.66,161.4,54.04,160.64 M56.52,148.01
		c0.76,0.38,1.06,1.3,0.69,2.06c-0.38,0.76-1.3,1.06-2.06,0.68s-1.06-1.3-0.68-2.06C54.84,147.93,55.76,147.63,56.52,148.01
		 M51.65,142.7c0.38-0.76,1.3-1.06,2.06-0.68c0.76,0.38,1.06,1.3,0.69,2.06c-0.38,0.76-1.3,1.06-2.06,0.68
		C51.58,144.38,51.27,143.46,51.65,142.7 M51.47,146.27c0.76,0.38,1.06,1.3,0.68,2.06c-0.38,0.76-1.3,1.06-2.06,0.68
		s-1.06-1.3-0.68-2.06C49.79,146.2,50.71,145.89,51.47,146.27 M47.11,140.58c0.38-0.76,1.3-1.06,2.06-0.68s1.06,1.3,0.68,2.06
		c-0.38,0.76-1.3,1.06-2.06,0.68C47.04,142.26,46.73,141.34,47.11,140.58 M46.67,144.14c0.76,0.38,1.06,1.3,0.68,2.06
		c-0.38,0.76-1.3,1.06-2.06,0.68s-1.06-1.3-0.68-2.06C44.99,144.07,45.92,143.77,46.67,144.14 M42.09,137.86
		c0.38-0.76,1.3-1.06,2.06-0.68c0.76,0.38,1.06,1.3,0.68,2.06c-0.38,0.76-1.3,1.06-2.06,0.68S41.71,138.62,42.09,137.86
		 M39.6,142.11c0.38-0.76,1.3-1.06,2.06-0.68c0.76,0.38,1.06,1.3,0.68,2.06c-0.38,0.76-1.3,1.06-2.06,0.68S39.22,142.87,39.6,142.11
		 M39.38,146.47c0.76,0.38,1.06,1.3,0.68,2.06c-0.38,0.76-1.3,1.06-2.06,0.68c-0.76-0.38-1.06-1.3-0.68-2.06
		C37.7,146.4,38.62,146.09,39.38,146.47 M35.25,139.4c0.38-0.76,1.3-1.06,2.06-0.68s1.06,1.3,0.68,2.06
		c-0.38,0.76-1.3,1.06-2.06,0.68S34.87,140.15,35.25,139.4 M33.01,143.65c0.38-0.76,1.3-1.06,2.06-0.68s1.06,1.3,0.69,2.06
		c-0.38,0.76-1.3,1.06-2.06,0.68C32.94,145.32,32.63,144.4,33.01,143.65 M30.51,147.9c0.38-0.76,1.3-1.06,2.06-0.68
		s1.06,1.3,0.68,2.06c-0.38,0.76-1.3,1.06-2.06,0.68C30.44,149.57,30.13,148.65,30.51,147.9 M28.18,152.55
		c0.38-0.76,1.3-1.06,2.06-0.68s1.06,1.3,0.68,2.06c-0.38,0.76-1.3,1.06-2.06,0.68S27.81,153.31,28.18,152.55 M25.88,157.21
		c0.38-0.76,1.3-1.06,2.06-0.68s1.06,1.3,0.68,2.06c-0.38,0.76-1.3,1.06-2.06,0.68C25.81,158.88,25.51,157.96,25.88,157.21
		 M24.24,163.92c-0.76-0.38-1.06-1.3-0.68-2.06c0.38-0.76,1.3-1.06,2.06-0.68s1.06,1.3,0.68,2.06
		C25.92,163.99,25,164.3,24.24,163.92 M28.37,170.99c-0.38,0.76-1.3,1.06-2.06,0.68c-0.76-0.38-1.06-1.3-0.68-2.06
		s1.3-1.06,2.06-0.68S28.75,170.24,28.37,170.99 M28.64,167.02c-0.76-0.38-1.06-1.3-0.69-2.06s1.3-1.06,2.06-0.68
		s1.06,1.3,0.68,2.06C30.32,167.09,29.4,167.4,28.64,167.02 M33.25,173.58c-0.38,0.76-1.3,1.06-2.06,0.68
		c-0.76-0.38-1.06-1.3-0.68-2.06c0.38-0.76,1.3-1.06,2.06-0.68C33.33,171.9,33.63,172.82,33.25,173.58 M33.52,169.61
		c-0.76-0.38-1.06-1.3-0.68-2.06c0.38-0.76,1.3-1.06,2.06-0.68c0.76,0.38,1.06,1.3,0.68,2.06C35.2,169.68,34.28,169.99,33.52,169.61
		 M38.13,176.17c-0.38,0.76-1.3,1.06-2.06,0.68s-1.06-1.3-0.68-2.06c0.38-0.76,1.3-1.06,2.06-0.68S38.51,175.41,38.13,176.17
		 M40.46,171.51c-0.38,0.76-1.3,1.06-2.06,0.68c-0.76-0.38-1.06-1.3-0.68-2.06c0.38-0.76,1.3-1.06,2.06-0.69
		C40.53,169.83,40.84,170.75,40.46,171.51 M40.7,167.54c-0.76-0.38-1.06-1.3-0.68-2.06c0.38-0.76,1.3-1.06,2.06-0.68
		c0.76,0.38,1.06,1.3,0.68,2.06C42.38,167.61,41.46,167.92,40.7,167.54 M45.51,172.53c-0.38,0.76-1.3,1.06-2.06,0.68
		s-1.06-1.3-0.68-2.06c0.38-0.76,1.3-1.06,2.06-0.68S45.89,171.77,45.51,172.53 M45.78,168.55c-0.76-0.38-1.06-1.3-0.68-2.06
		c0.38-0.76,1.3-1.06,2.06-0.69c0.76,0.38,1.06,1.3,0.68,2.06C47.46,168.63,46.54,168.93,45.78,168.55 M49.82,175.98
		c-0.38,0.76-1.3,1.06-2.06,0.68c-0.76-0.38-1.06-1.3-0.68-2.06c0.38-0.76,1.3-1.06,2.06-0.68S50.2,175.22,49.82,175.98
		 M52.15,171.33c-0.38,0.76-1.3,1.06-2.06,0.68c-0.76-0.38-1.06-1.3-0.68-2.06c0.38-0.76,1.3-1.06,2.06-0.68
		S52.53,170.57,52.15,171.33 M52.39,167.35c-0.76-0.38-1.06-1.3-0.68-2.06c0.38-0.76,1.3-1.06,2.06-0.68s1.06,1.3,0.68,2.06
		C54.07,167.43,53.15,167.73,52.39,167.35 M57.29,173.65c-0.38,0.76-1.3,1.06-2.06,0.68s-1.06-1.3-0.68-2.06
		c0.38-0.76,1.3-1.06,2.06-0.68C57.36,171.97,57.67,172.9,57.29,173.65 M59.59,169c-0.38,0.76-1.3,1.06-2.06,0.68
		c-0.76-0.38-1.06-1.3-0.69-2.06c0.38-0.76,1.3-1.06,2.06-0.68C59.66,167.32,59.97,168.24,59.59,169 M61.92,164.34
		c-0.38,0.76-1.3,1.06-2.06,0.68c-0.76-0.38-1.06-1.3-0.68-2.06c0.38-0.76,1.3-1.06,2.06-0.68
		C61.99,162.66,62.3,163.59,61.92,164.34 M64.42,160.09c-0.38,0.76-1.3,1.06-2.06,0.68s-1.06-1.3-0.68-2.06
		c0.38-0.76,1.3-1.06,2.06-0.68S64.8,159.34,64.42,160.09"/>
	<path style="clip-path:url(#SVGID_00000027567473336073229780000003153768291922586498_);fill:#00B6E1;" d="M450.8,226.13
		l-12.81-111.01h-30.87l-69.63,111.01h29.23l9.85-15.77h43.03v15.77H450.8z M387.28,192.3l26.63-44.01l3.06,44.01H387.28z"/>
	<path style="clip-path:url(#SVGID_00000027567473336073229780000003153768291922586498_);fill:#00B6E1;" d="M467.88,191.36h27.59
		l-0.82,6.08c0,0-2.96,9.69,17.57,9.69c20.53,0,24.14-10.18,24.14-10.18l22.25-82.77h31.04l-19.71,78.42c0,0-4.43,34.49-54.69,34.49
		s-48.53-14.29-48.53-14.29S464.35,211.8,467.88,191.36"/>
	<path style="clip-path:url(#SVGID_00000027567473336073229780000003153768291922586498_);fill:#00B6E1;" d="M674.88,115.18h-64.79
		l-28.33,110.95h32.76l7.88-34.15c0,0,16.01,0.49,38.92,0c22.91-0.5,45.82-20.05,45.82-49.74
		C707.15,112.54,674.88,115.18,674.88,115.18 M675.62,150.65c-2.71,14.6-8.79,21.24-19.42,21.24h-28.61l8.87-35.84h26.85
		C663.3,136.05,678.33,136.05,675.62,150.65"/>
	<path style="clip-path:url(#SVGID_00000027567473336073229780000003153768291922586498_);fill:#00B6E1;" d="M795.34,115.18h-64.79
		l-28.33,110.95h32.76l7.88-34.15c0,0,16.01,0.49,38.92,0c22.91-0.5,45.82-20.05,45.82-49.74
		C827.61,112.54,795.34,115.18,795.34,115.18 M796.07,150.65c-2.71,14.6-8.79,21.24-19.42,21.24h-28.61l8.87-35.84h26.85
		C783.76,136.05,798.78,136.05,796.07,150.65"/>
	<path style="clip-path:url(#SVGID_00000027567473336073229780000003153768291922586498_);" d="M337.23,239.09l4.76,29.91h-6.17
		l-0.68-5.21h-14.73l-3.39,5.21h-5.79l19.9-29.91H337.23z M322.88,259.94h11.76l-1.9-15.11L322.88,259.94z"/>
	<path style="clip-path:url(#SVGID_00000027567473336073229780000003153768291922586498_);" d="M367.83,239.09
		c4.11,0,12.41-0.34,12.41,5.6c0,1.14-0.23,2.28-0.49,3.39c-1.6,6.62-5.21,8.03-11.65,8.45l7.53,12.48h-6.93l-7.46-12.37h-5.9
		L352.3,269h-6.24l7.42-29.91H367.83z M356.26,253.05h8.56c4.53,0,7.57,0.11,8.75-4.91c0.15-0.68,0.3-1.41,0.3-2.13
		c0-3.24-4.38-2.85-6.58-2.85h-8.56L356.26,253.05z"/>
	<path style="clip-path:url(#SVGID_00000027567473336073229780000003153768291922586498_);" d="M410.88,251.87L406.65,269h-4.22
		l-0.23-2.97c-3.77,2.36-8.18,3.39-12.6,3.39c-5.37,0-8.6-1.48-8.6-7.34c0-2.7,0.61-5.48,1.26-8.11
		c2.89-11.46,6.36-15.45,18.42-15.45c3.58,0,9.63,0.27,12.6,2.59l-1.56,6.24h-5.78l0.91-3.62c-1.9-0.84-5.02-0.91-7.08-0.91
		c-8.18,0-9.48,3.81-11.34,11.15c-0.57,2.21-1.1,4.57-1.1,6.85c0,3.5,1.64,4.41,4.91,4.41c3.62,0,7.15-1.1,10.24-3.01l1.64-6.43
		h-7.15l0.95-3.92H410.88z"/>
	<polygon style="clip-path:url(#SVGID_00000027567473336073229780000003153768291922586498_);" points="447.53,239.09 
		446.47,243.35 424.81,243.35 422.83,251.3 443.73,251.3 442.74,255.45 421.8,255.45 419.48,264.74 441.29,264.74 440.22,269 
		412.21,269 419.63,239.09 	"/>
	<polygon style="clip-path:url(#SVGID_00000027567473336073229780000003153768291922586498_);" points="458.57,239.09 
		469.46,260.13 474.71,239.09 480.34,239.09 472.92,269 468.2,269 456.1,246.39 450.46,269 444.87,269 452.29,239.09 	"/>
	<polygon style="clip-path:url(#SVGID_00000027567473336073229780000003153768291922586498_);" points="514.1,239.09 513.03,243.35 
		501.47,243.35 495.11,269 488.87,269 495.22,243.35 483.62,243.35 484.68,239.09 	"/>
	<polygon style="clip-path:url(#SVGID_00000027567473336073229780000003153768291922586498_);" points="545.01,239.09 
		544.09,242.85 534.69,242.85 529.1,265.23 538.5,265.23 537.58,269 512.5,269 513.42,265.23 522.82,265.23 528.41,242.85 
		519.01,242.85 519.93,239.09 	"/>
	<polygon style="clip-path:url(#SVGID_00000027567473336073229780000003153768291922586498_);" points="557.8,239.09 568.68,260.13 
		573.93,239.09 579.57,239.09 572.14,269 567.43,269 555.32,246.39 549.69,269 544.1,269 551.52,239.09 	"/>
	<path style="clip-path:url(#SVGID_00000027567473336073229780000003153768291922586498_);" d="M601.83,239.09l4.76,29.91h-6.17
		l-0.68-5.21h-14.73l-3.39,5.21h-5.78l19.9-29.91H601.83z M587.48,259.94h11.76l-1.9-15.11L587.48,259.94z"/>
</g>
</svg>
